<?xml version="1.0" encoding="UTF-8" standalone="no"?>
<!-- Created with Inkscape (http://www.inkscape.org/) -->

<svg
   xmlns:dc="http://purl.org/dc/elements/1.1/"
   xmlns:cc="http://creativecommons.org/ns#"
   xmlns:rdf="http://www.w3.org/1999/02/22-rdf-syntax-ns#"
   xmlns:svg="http://www.w3.org/2000/svg"
   xmlns="http://www.w3.org/2000/svg"
   xmlns:sodipodi="http://sodipodi.sourceforge.net/DTD/sodipodi-0.dtd"
   xmlns:inkscape="http://www.inkscape.org/namespaces/inkscape"
   width="30"
   height="30"
   viewBox="0 0 30 30"
   id="svg2"
   version="1.1"
   inkscape:version="0.48.4 r9939"
   sodipodi:docname="11b_add_generatrices_sous_graph.svg">
  <defs
     id="defs4" />
  <sodipodi:namedview
     id="base"
     pagecolor="#ffffff"
     bordercolor="#666666"
     borderopacity="1.0"
     inkscape:pageopacity="0.0"
     inkscape:pageshadow="2"
     inkscape:zoom="9.0827589"
     inkscape:cx="19.408624"
     inkscape:cy="10.89117"
     inkscape:document-units="px"
     inkscape:current-layer="layer1"
     showgrid="false"
     units="px"
     borderlayer="true"
     inkscape:window-width="1920"
     inkscape:window-height="1180"
     inkscape:window-x="1918"
     inkscape:window-y="-3"
     inkscape:window-maximized="1"
     showguides="true"
     inkscape:guide-bbox="true"
     inkscape:showpageshadow="false">
    <inkscape:grid
       type="xygrid"
       id="grid4137"
       empspacing="5"
       visible="true"
       enabled="true"
       snapvisiblegridlinesonly="true" />
  </sodipodi:namedview>
  <metadata
     id="metadata7">
    <rdf:RDF>
      <cc:Work
         rdf:about="">
        <dc:format>image/svg+xml</dc:format>
        <dc:type
           rdf:resource="http://purl.org/dc/dcmitype/StillImage" />
        <dc:title></dc:title>
      </cc:Work>
    </rdf:RDF>
  </metadata>
  <g
     inkscape:label="Calque 1"
     inkscape:groupmode="layer"
     id="layer1"
     transform="translate(0,-1022.3622)">
    <g
       id="g4146"
       transform="matrix(0.58162275,0.26949738,-0.63242052,1.3648747,671.52194,-388.33223)"
       inkscape:transform-center-x="-6.6071429"
       inkscape:transform-center-y="-0.26785714" />
    <path
       style="fill:none;stroke:#aa37da;stroke-width:1.98848175999999999;stroke-linecap:butt;stroke-linejoin:miter;stroke-miterlimit:4;stroke-opacity:1;stroke-dasharray:none"
       d="m 27.10214,1032.9221 -8.448009,0.1002 -7.04001,5.4297 -4.9605595,7.7917"
       id="path4149"
       inkscape:connector-curvature="0"
       inkscape:transform-center-x="-1.9939073"
       inkscape:transform-center-y="7.4930733"
       sodipodi:nodetypes="cccc" />
    <rect
       ry="1.1696953"
       rx="1.1696953"
       y="564.45428"
       x="-876.55188"
       height="6.2629418"
       width="4.0032439"
       id="rect3392-36-7"
       style="fill:#ffa700;fill-opacity:1;fill-rule:evenodd;stroke:#976200;stroke-width:0.29999998;stroke-linecap:butt;stroke-linejoin:miter;stroke-miterlimit:4;stroke-opacity:1;stroke-dasharray:none"
       transform="matrix(0.53713574,-0.84349582,0.84349582,0.53713574,0,0)" />
    <path
       style="fill:none;stroke:#aa37da;stroke-width:1.98848175999999999;stroke-linecap:butt;stroke-linejoin:miter;stroke-miterlimit:4;stroke-opacity:1;stroke-dasharray:none"
       d="m 11.714693,1038.5529 -7.1087366,-5.4163"
       id="path4151"
       inkscape:connector-curvature="0"
       inkscape:transform-center-x="5.1794267"
       inkscape:transform-center-y="2.5938791" />
    <path
       style="fill:#aa37da;stroke:#aa37da;stroke-width:1.98848175999999999;stroke-linecap:butt;stroke-linejoin:miter;stroke-miterlimit:4;stroke-opacity:1;stroke-dasharray:none;fill-opacity:1"
       d="m 18.754702,1033.0227 -4.378107,-6.1753"
       id="path4153"
       inkscape:connector-curvature="0"
       inkscape:transform-center-x="-0.84553174"
       inkscape:transform-center-y="-1.9741881" />
    <circle
       sodipodi:ry="1.6861631"
       sodipodi:rx="1.6861631"
       sodipodi:cy="1035.6575"
       sodipodi:cx="2.401787"
       d="m 4.0879501,1035.6575 c 0,0.9312 -0.7549209,1.6861 -1.6861631,1.6861 -0.9312421,0 -1.68616303,-0.7549 -1.68616303,-1.6861 0,-0.9313 0.75492093,-1.6862 1.68616303,-1.6862 0.9312422,0 1.6861631,0.7549 1.6861631,1.6862 z"
       style="color:#000000;fill:#ffffff;fill-opacity:1;fill-rule:nonzero;stroke:#3788da;stroke-width:0.68366515999999999;stroke-linecap:round;stroke-linejoin:round;stroke-miterlimit:4;stroke-opacity:1;stroke-dasharray:none;stroke-dashoffset:0;marker:none;visibility:visible;display:inline;overflow:visible;enable-background:accumulate"
       id="path4155"
       cx="2.401787"
       cy="1035.6575"
       r="1.6861631"
       transform="matrix(-1.1264017,0,0,-1.126163,29.455515,2199.3911)"
       inkscape:transform-center-x="-12.805348"
       inkscape:transform-center-y="1.4090491" />
    <rect
       ry="1.1696953"
       rx="1.1696954"
       y="1026.3931"
       x="24.7283"
       height="13.094954"
       width="4.2613139"
       id="rect3392"
       style="fill:#ffff00;fill-opacity:1;fill-rule:evenodd;stroke:#999900;stroke-width:0.29999998;stroke-linecap:butt;stroke-linejoin:miter;stroke-miterlimit:4;stroke-opacity:1;stroke-dasharray:none" />
    <circle
       sodipodi:ry="1.6861631"
       sodipodi:rx="1.6861631"
       sodipodi:cy="1035.8807"
       sodipodi:cx="9.589282"
       d="m 11.275445,1035.8807 c 0,0.9313 -0.754921,1.6862 -1.686163,1.6862 -0.9312421,0 -1.686163,-0.7549 -1.686163,-1.6862 0,-0.9312 0.7549209,-1.6861 1.686163,-1.6861 0.931242,0 1.686163,0.7549 1.686163,1.6861 z"
       style="color:#000000;fill:#ffffff;fill-opacity:1;fill-rule:nonzero;stroke:#aa37da;stroke-width:0.68366515999999999;stroke-linecap:round;stroke-linejoin:round;stroke-miterlimit:4;stroke-opacity:1;stroke-dasharray:none;stroke-dashoffset:0;marker:none;visibility:visible;display:inline;overflow:visible;enable-background:accumulate"
       id="path4155-3"
       cx="9.589282"
       cy="1035.8807"
       r="1.6861631"
       transform="matrix(-1.1264017,0,0,-1.126163,29.455515,2199.3911)"
       inkscape:transform-center-x="-4.7093418"
       inkscape:transform-center-y="1.1576145" />
    <rect
       ry="1.1696053"
       rx="1.1696064"
       y="599.59717"
       x="825.14984"
       height="7.2700028"
       width="3.2661266"
       id="rect3392-36"
       style="fill:#ffa700;fill-opacity:1;fill-rule:evenodd;stroke:#976200;stroke-width:0.30001146;stroke-linecap:butt;stroke-linejoin:miter;stroke-miterlimit:4;stroke-opacity:1;stroke-dasharray:none"
       transform="matrix(0.59850082,0.80112219,-0.79366109,0.60836016,0,0)" />
    <circle
       sodipodi:ry="1.6861631"
       sodipodi:rx="1.6861631"
       sodipodi:cy="1030.7914"
       sodipodi:cx="16.196444"
       d="m 17.882607,1030.7914 c 0,0.9312 -0.754921,1.6861 -1.686163,1.6861 -0.931243,0 -1.686164,-0.7549 -1.686164,-1.6861 0,-0.9313 0.754921,-1.6862 1.686164,-1.6862 0.931242,0 1.686163,0.7549 1.686163,1.6862 z"
       style="color:#000000;fill:#ffffff;fill-opacity:1;fill-rule:nonzero;stroke:#aa37da;stroke-width:0.68366515999999999;stroke-linecap:round;stroke-linejoin:round;stroke-miterlimit:4;stroke-opacity:1;stroke-dasharray:none;stroke-dashoffset:0;marker:none;visibility:visible;display:inline;overflow:visible;enable-background:accumulate"
       id="path4155-6"
       cx="16.196444"
       cy="1030.7914"
       r="1.6861631"
       transform="matrix(-1.1264017,0,0,-1.126163,29.455515,2199.3911)"
       inkscape:transform-center-x="2.7329762"
       inkscape:transform-center-y="6.8890583" />
    <circle
       sodipodi:ry="1.6861631"
       sodipodi:rx="1.6861631"
       sodipodi:cy="1024.4521"
       sodipodi:cx="21.821442"
       d="m 23.507605,1024.4521 c 0,0.9313 -0.754921,1.6862 -1.686163,1.6862 -0.931242,0 -1.686163,-0.7549 -1.686163,-1.6862 0,-0.9312 0.754921,-1.6861 1.686163,-1.6861 0.931242,0 1.686163,0.7549 1.686163,1.6861 z"
       style="color:#000000;fill:#ffffff;fill-opacity:1;fill-rule:nonzero;stroke:#aa37da;stroke-width:0.68366515999999999;stroke-linecap:round;stroke-linejoin:round;stroke-miterlimit:4;stroke-opacity:1;stroke-dasharray:none;stroke-dashoffset:0;marker:none;visibility:visible;display:inline;overflow:visible;enable-background:accumulate"
       id="path4155-7"
       cx="21.821442"
       cy="1024.4521"
       r="1.6861631"
       transform="matrix(-1.1264017,0,0,-1.126163,30.992313,2200.2449)"
       inkscape:transform-center-x="9.0689836"
       inkscape:transform-center-y="14.028068" />
    <circle
       sodipodi:ry="1.6861631"
       sodipodi:rx="1.6861631"
       sodipodi:cy="1036.8628"
       sodipodi:cx="24.053585"
       d="m 25.739748,1036.8628 c 0,0.9312 -0.754921,1.6862 -1.686163,1.6862 -0.931242,0 -1.686163,-0.755 -1.686163,-1.6862 0,-0.9312 0.754921,-1.6862 1.686163,-1.6862 0.931242,0 1.686163,0.755 1.686163,1.6862 z"
       style="color:#000000;fill:#ffffff;fill-opacity:1;fill-rule:nonzero;stroke:#aa37da;stroke-width:0.68366515999999999;stroke-linecap:round;stroke-linejoin:round;stroke-miterlimit:4;stroke-opacity:1;stroke-dasharray:none;stroke-dashoffset:0;marker:none;visibility:visible;display:inline;overflow:visible;enable-background:accumulate"
       id="path4155-5"
       cx="24.053585"
       cy="1036.8628"
       r="1.6861631"
       transform="matrix(-1.1264017,0,0,-1.126163,30.821557,2199.9887)"
       inkscape:transform-center-x="11.583274"
       inkscape:transform-center-y="0.051659756" />
    <circle
       sodipodi:ry="1.6861631"
       sodipodi:rx="1.6861631"
       sodipodi:cy="1042.1307"
       sodipodi:cx="15.303577"
       d="m 16.98974,1042.1307 c 0,0.9313 -0.75492,1.6862 -1.686163,1.6862 -0.931242,0 -1.686163,-0.7549 -1.686163,-1.6862 0,-0.9312 0.754921,-1.6861 1.686163,-1.6861 0.931243,0 1.686163,0.7549 1.686163,1.6861 z"
       style="color:#000000;fill:#ffffff;fill-opacity:1;fill-rule:nonzero;stroke:#aa37da;stroke-width:0.68366515999999999;stroke-linecap:round;stroke-linejoin:round;stroke-miterlimit:4;stroke-opacity:1;stroke-dasharray:none;stroke-dashoffset:0;marker:none;visibility:visible;display:inline;overflow:visible;enable-background:accumulate"
       id="path4155-35"
       cx="15.303577"
       cy="1042.1307"
       r="1.6861631"
       transform="matrix(-1.1264017,0,0,-1.126163,30.821557,2199.5619)"
       inkscape:transform-center-x="1.7272503"
       inkscape:transform-center-y="-5.8809042" />
  </g>
</svg>
