<?xml version="1.0" encoding="UTF-8" standalone="no"?>
<!-- Created with Inkscape (http://www.inkscape.org/) -->

<svg
   xmlns:dc="http://purl.org/dc/elements/1.1/"
   xmlns:cc="http://creativecommons.org/ns#"
   xmlns:rdf="http://www.w3.org/1999/02/22-rdf-syntax-ns#"
   xmlns:svg="http://www.w3.org/2000/svg"
   xmlns="http://www.w3.org/2000/svg"
   xmlns:sodipodi="http://sodipodi.sourceforge.net/DTD/sodipodi-0.dtd"
   xmlns:inkscape="http://www.inkscape.org/namespaces/inkscape"
   width="30"
   height="30"
   viewBox="0 0 30 30"
   id="svg2"
   version="1.1"
   inkscape:version="0.48.4 r9939"
   sodipodi:docname="12_add_graph.svg">
  <defs
     id="defs4" />
  <sodipodi:namedview
     id="base"
     pagecolor="#ffffff"
     bordercolor="#666666"
     borderopacity="1.0"
     inkscape:pageopacity="0.0"
     inkscape:pageshadow="2"
     inkscape:zoom="1"
     inkscape:cx="33.166071"
     inkscape:cy="12.9198"
     inkscape:document-units="px"
     inkscape:current-layer="layer1"
     showgrid="false"
     units="px"
     borderlayer="true"
     inkscape:window-width="1920"
     inkscape:window-height="1180"
     inkscape:window-x="1918"
     inkscape:window-y="-3"
     inkscape:window-maximized="1"
     inkscape:showpageshadow="false"
     showguides="true"
     inkscape:guide-bbox="true">
    <inkscape:grid
       type="xygrid"
       id="grid4137"
       empspacing="5"
       visible="true"
       enabled="true"
       snapvisiblegridlinesonly="true" />
  </sodipodi:namedview>
  <metadata
     id="metadata7">
    <rdf:RDF>
      <cc:Work
         rdf:about="">
        <dc:format>image/svg+xml</dc:format>
        <dc:type
           rdf:resource="http://purl.org/dc/dcmitype/StillImage" />
        <dc:title />
      </cc:Work>
    </rdf:RDF>
  </metadata>
  <g
     inkscape:label="Calque 1"
     inkscape:groupmode="layer"
     id="layer1"
     transform="translate(0,-1022.3622)">
    <g
       id="g3859"
       transform="matrix(0.80860638,0,0,0.80860638,-1.0047876,194.88591)">
      <path
         sodipodi:nodetypes="cccc"
         inkscape:transform-center-y="7.4930733"
         inkscape:transform-center-x="-1.9939073"
         inkscape:connector-curvature="0"
         id="path4149"
         d="m 27.10214,1032.9221 -8.448009,0.1002 -7.04001,5.4297 -4.9605591,7.7917"
         style="fill:none;stroke:#3788da;stroke-width:2.45914674;stroke-linecap:butt;stroke-linejoin:miter;stroke-miterlimit:4;stroke-opacity:1;stroke-dasharray:none" />
      <path
         inkscape:transform-center-y="2.5938791"
         inkscape:transform-center-x="5.1794267"
         inkscape:connector-curvature="0"
         id="path4151"
         d="m 11.714693,1038.5529 -7.1087362,-5.4163"
         style="fill:none;stroke:#3788da;stroke-width:2.45914674;stroke-linecap:butt;stroke-linejoin:miter;stroke-miterlimit:4;stroke-opacity:1;stroke-dasharray:none" />
      <path
         inkscape:transform-center-y="-1.9741881"
         inkscape:transform-center-x="-0.84553174"
         inkscape:connector-curvature="0"
         id="path4153"
         d="m 18.754702,1033.0227 -4.378107,-6.1753"
         style="fill:none;stroke:#3788da;stroke-width:2.45914674;stroke-linecap:butt;stroke-linejoin:miter;stroke-miterlimit:4;stroke-opacity:1;stroke-dasharray:none" />
      <circle
         inkscape:transform-center-y="1.4090491"
         inkscape:transform-center-x="-12.805348"
         transform="matrix(-1.1264017,0,0,-1.126163,29.455515,2199.3911)"
         r="1.6861631"
         cy="1035.6575"
         cx="2.401787"
         id="path4155"
         style="color:#000000;fill:#ffffff;fill-opacity:1;fill-rule:nonzero;stroke:#3788da;stroke-width:0.84548575;stroke-linecap:round;stroke-linejoin:round;stroke-miterlimit:4;stroke-opacity:1;stroke-dasharray:none;stroke-dashoffset:0;marker:none;visibility:visible;display:inline;overflow:visible;enable-background:accumulate"
         d="m 4.0879501,1035.6575 c 0,0.9312 -0.7549209,1.6861 -1.6861631,1.6861 -0.9312421,0 -1.68616303,-0.7549 -1.68616303,-1.6861 0,-0.9313 0.75492093,-1.6862 1.68616303,-1.6862 0.9312422,0 1.6861631,0.7549 1.6861631,1.6862 z"
         sodipodi:cx="2.401787"
         sodipodi:cy="1035.6575"
         sodipodi:rx="1.6861631"
         sodipodi:ry="1.6861631" />
      <circle
         inkscape:transform-center-y="1.1576145"
         inkscape:transform-center-x="-4.7093418"
         transform="matrix(-1.1264017,0,0,-1.126163,29.455515,2199.3911)"
         r="1.6861631"
         cy="1035.8807"
         cx="9.589282"
         id="path4155-3"
         style="color:#000000;fill:#ffffff;fill-opacity:1;fill-rule:nonzero;stroke:#3788da;stroke-width:0.84548575;stroke-linecap:round;stroke-linejoin:round;stroke-miterlimit:4;stroke-opacity:1;stroke-dasharray:none;stroke-dashoffset:0;marker:none;visibility:visible;display:inline;overflow:visible;enable-background:accumulate"
         d="m 11.275445,1035.8807 c 0,0.9313 -0.754921,1.6862 -1.686163,1.6862 -0.9312421,0 -1.686163,-0.7549 -1.686163,-1.6862 0,-0.9312 0.7549209,-1.6861 1.686163,-1.6861 0.931242,0 1.686163,0.7549 1.686163,1.6861 z"
         sodipodi:cx="9.589282"
         sodipodi:cy="1035.8807"
         sodipodi:rx="1.6861631"
         sodipodi:ry="1.6861631" />
      <circle
         inkscape:transform-center-y="6.8890583"
         inkscape:transform-center-x="2.7329762"
         transform="matrix(-1.1264017,0,0,-1.126163,29.455515,2199.3911)"
         r="1.6861631"
         cy="1030.7914"
         cx="16.196444"
         id="path4155-6"
         style="color:#000000;fill:#ffffff;fill-opacity:1;fill-rule:nonzero;stroke:#3788da;stroke-width:0.84548575;stroke-linecap:round;stroke-linejoin:round;stroke-miterlimit:4;stroke-opacity:1;stroke-dasharray:none;stroke-dashoffset:0;marker:none;visibility:visible;display:inline;overflow:visible;enable-background:accumulate"
         d="m 17.882607,1030.7914 c 0,0.9312 -0.754921,1.6861 -1.686163,1.6861 -0.931243,0 -1.686164,-0.7549 -1.686164,-1.6861 0,-0.9313 0.754921,-1.6862 1.686164,-1.6862 0.931242,0 1.686163,0.7549 1.686163,1.6862 z"
         sodipodi:cx="16.196444"
         sodipodi:cy="1030.7914"
         sodipodi:rx="1.6861631"
         sodipodi:ry="1.6861631" />
      <circle
         inkscape:transform-center-y="14.028068"
         inkscape:transform-center-x="9.0689836"
         transform="matrix(-1.1264017,0,0,-1.126163,30.992313,2200.2449)"
         r="1.6861631"
         cy="1024.4521"
         cx="21.821442"
         id="path4155-7"
         style="color:#000000;fill:#ffffff;fill-opacity:1;fill-rule:nonzero;stroke:#3788da;stroke-width:0.84548575;stroke-linecap:round;stroke-linejoin:round;stroke-miterlimit:4;stroke-opacity:1;stroke-dasharray:none;stroke-dashoffset:0;marker:none;visibility:visible;display:inline;overflow:visible;enable-background:accumulate"
         d="m 23.507605,1024.4521 c 0,0.9313 -0.754921,1.6862 -1.686163,1.6862 -0.931242,0 -1.686163,-0.7549 -1.686163,-1.6862 0,-0.9312 0.754921,-1.6861 1.686163,-1.6861 0.931242,0 1.686163,0.7549 1.686163,1.6861 z"
         sodipodi:cx="21.821442"
         sodipodi:cy="1024.4521"
         sodipodi:rx="1.6861631"
         sodipodi:ry="1.6861631" />
      <circle
         inkscape:transform-center-y="0.051659756"
         inkscape:transform-center-x="11.583274"
         transform="matrix(-1.1264017,0,0,-1.126163,30.821557,2199.9887)"
         r="1.6861631"
         cy="1036.8628"
         cx="24.053585"
         id="path4155-5"
         style="color:#000000;fill:#ffffff;fill-opacity:1;fill-rule:nonzero;stroke:#3788da;stroke-width:0.84548575;stroke-linecap:round;stroke-linejoin:round;stroke-miterlimit:4;stroke-opacity:1;stroke-dasharray:none;stroke-dashoffset:0;marker:none;visibility:visible;display:inline;overflow:visible;enable-background:accumulate"
         d="m 25.739748,1036.8628 c 0,0.9312 -0.754921,1.6862 -1.686163,1.6862 -0.931242,0 -1.686163,-0.755 -1.686163,-1.6862 0,-0.9312 0.754921,-1.6862 1.686163,-1.6862 0.931242,0 1.686163,0.755 1.686163,1.6862 z"
         sodipodi:cx="24.053585"
         sodipodi:cy="1036.8628"
         sodipodi:rx="1.6861631"
         sodipodi:ry="1.6861631" />
      <circle
         inkscape:transform-center-y="-5.8809042"
         inkscape:transform-center-x="1.7272503"
         transform="matrix(-1.1264017,0,0,-1.126163,30.821557,2199.5619)"
         r="1.6861631"
         cy="1042.1307"
         cx="15.303577"
         id="path4155-35"
         style="color:#000000;fill:#ffffff;fill-opacity:1;fill-rule:nonzero;stroke:#3788da;stroke-width:0.84548575;stroke-linecap:round;stroke-linejoin:round;stroke-miterlimit:4;stroke-opacity:1;stroke-dasharray:none;stroke-dashoffset:0;marker:none;visibility:visible;display:inline;overflow:visible;enable-background:accumulate"
         d="m 16.98974,1042.1307 c 0,0.9313 -0.75492,1.6862 -1.686163,1.6862 -0.931242,0 -1.686163,-0.7549 -1.686163,-1.6862 0,-0.9312 0.754921,-1.6861 1.686163,-1.6861 0.931243,0 1.686163,0.7549 1.686163,1.6861 z"
         sodipodi:cx="15.303577"
         sodipodi:cy="1042.1307"
         sodipodi:rx="1.6861631"
         sodipodi:ry="1.6861631" />
    </g>
    <g
       id="g3842"
       transform="matrix(-0.646297,0,0,-0.646297,52.736981,1705.575)">
      <path
         sodipodi:nodetypes="cccc"
         inkscape:transform-center-y="7.4930733"
         inkscape:transform-center-x="-1.9939073"
         inkscape:connector-curvature="0"
         id="path4149-3"
         d="m 61.293516,1020.1868 -8.448009,0.1002 -7.04001,5.4297 -4.960559,7.7917"
         style="fill:none;stroke:#aa37da;stroke-width:3.07673073;stroke-linecap:butt;stroke-linejoin:miter;stroke-miterlimit:4;stroke-opacity:1;stroke-dasharray:none" />
      <path
         inkscape:transform-center-y="2.5938791"
         inkscape:transform-center-x="5.1794267"
         inkscape:connector-curvature="0"
         id="path4151-6"
         d="m 45.906069,1025.8176 -7.108736,-5.4163"
         style="fill:none;stroke:#aa37da;stroke-width:3.07673073;stroke-linecap:butt;stroke-linejoin:miter;stroke-miterlimit:4;stroke-opacity:1;stroke-dasharray:none" />
      <path
         inkscape:transform-center-y="-1.9741881"
         inkscape:transform-center-x="-0.84553174"
         inkscape:connector-curvature="0"
         id="path4153-7"
         d="m 52.946078,1020.2874 -4.378107,-6.1753"
         style="fill:#aa37da;fill-opacity:1;stroke:#aa37da;stroke-width:3.07673073;stroke-linecap:butt;stroke-linejoin:miter;stroke-miterlimit:4;stroke-opacity:1;stroke-dasharray:none" />
      <circle
         inkscape:transform-center-y="1.4090491"
         inkscape:transform-center-x="-12.805348"
         transform="matrix(-1.1264017,0,0,-1.126163,63.646891,2186.6558)"
         r="1.6861631"
         cy="1035.6575"
         cx="2.401787"
         id="path4155-53"
         style="color:#000000;fill:#ffffff;fill-opacity:1;fill-rule:nonzero;stroke:#aa37da;stroke-width:1.05781889;stroke-linecap:round;stroke-linejoin:round;stroke-miterlimit:4;stroke-opacity:1;stroke-dasharray:none;stroke-dashoffset:0;marker:none;visibility:visible;display:inline;overflow:visible;enable-background:accumulate"
         d="m 4.0879501,1035.6575 c 0,0.9312 -0.7549209,1.6861 -1.6861631,1.6861 -0.9312421,0 -1.68616303,-0.7549 -1.68616303,-1.6861 0,-0.9313 0.75492093,-1.6862 1.68616303,-1.6862 0.9312422,0 1.6861631,0.7549 1.6861631,1.6862 z"
         sodipodi:cx="2.401787"
         sodipodi:cy="1035.6575"
         sodipodi:rx="1.6861631"
         sodipodi:ry="1.6861631" />
      <circle
         inkscape:transform-center-y="1.1576145"
         inkscape:transform-center-x="-4.7093418"
         transform="matrix(-1.1264017,0,0,-1.126163,63.646891,2186.6558)"
         r="1.6861631"
         cy="1035.8807"
         cx="9.589282"
         id="path4155-3-5"
         style="color:#000000;fill:#ffffff;fill-opacity:1;fill-rule:nonzero;stroke:#aa37da;stroke-width:1.05781889;stroke-linecap:round;stroke-linejoin:round;stroke-miterlimit:4;stroke-opacity:1;stroke-dasharray:none;stroke-dashoffset:0;marker:none;visibility:visible;display:inline;overflow:visible;enable-background:accumulate"
         d="m 11.275445,1035.8807 c 0,0.9313 -0.754921,1.6862 -1.686163,1.6862 -0.9312421,0 -1.686163,-0.7549 -1.686163,-1.6862 0,-0.9312 0.7549209,-1.6861 1.686163,-1.6861 0.931242,0 1.686163,0.7549 1.686163,1.6861 z"
         sodipodi:cx="9.589282"
         sodipodi:cy="1035.8807"
         sodipodi:rx="1.6861631"
         sodipodi:ry="1.6861631" />
      <circle
         inkscape:transform-center-y="6.8890583"
         inkscape:transform-center-x="2.7329762"
         transform="matrix(-1.1264017,0,0,-1.126163,63.646891,2186.6558)"
         r="1.6861631"
         cy="1030.7914"
         cx="16.196444"
         id="path4155-6-6"
         style="color:#000000;fill:#ffffff;fill-opacity:1;fill-rule:nonzero;stroke:#aa37da;stroke-width:1.05781889;stroke-linecap:round;stroke-linejoin:round;stroke-miterlimit:4;stroke-opacity:1;stroke-dasharray:none;stroke-dashoffset:0;marker:none;visibility:visible;display:inline;overflow:visible;enable-background:accumulate"
         d="m 17.882607,1030.7914 c 0,0.9312 -0.754921,1.6861 -1.686163,1.6861 -0.931243,0 -1.686164,-0.7549 -1.686164,-1.6861 0,-0.9313 0.754921,-1.6862 1.686164,-1.6862 0.931242,0 1.686163,0.7549 1.686163,1.6862 z"
         sodipodi:cx="16.196444"
         sodipodi:cy="1030.7914"
         sodipodi:rx="1.6861631"
         sodipodi:ry="1.6861631" />
      <circle
         inkscape:transform-center-y="14.028068"
         inkscape:transform-center-x="9.0689836"
         transform="matrix(-1.1264017,0,0,-1.126163,65.183689,2187.5096)"
         r="1.6861631"
         cy="1024.4521"
         cx="21.821442"
         id="path4155-7-2"
         style="color:#000000;fill:#ffffff;fill-opacity:1;fill-rule:nonzero;stroke:#aa37da;stroke-width:1.05781889;stroke-linecap:round;stroke-linejoin:round;stroke-miterlimit:4;stroke-opacity:1;stroke-dasharray:none;stroke-dashoffset:0;marker:none;visibility:visible;display:inline;overflow:visible;enable-background:accumulate"
         d="m 23.507605,1024.4521 c 0,0.9313 -0.754921,1.6862 -1.686163,1.6862 -0.931242,0 -1.686163,-0.7549 -1.686163,-1.6862 0,-0.9312 0.754921,-1.6861 1.686163,-1.6861 0.931242,0 1.686163,0.7549 1.686163,1.6861 z"
         sodipodi:cx="21.821442"
         sodipodi:cy="1024.4521"
         sodipodi:rx="1.6861631"
         sodipodi:ry="1.6861631" />
      <circle
         inkscape:transform-center-y="0.051659756"
         inkscape:transform-center-x="11.583274"
         transform="matrix(-1.1264017,0,0,-1.126163,65.012933,2187.2534)"
         r="1.6861631"
         cy="1036.8628"
         cx="24.053585"
         id="path4155-5-9"
         style="color:#000000;fill:#ffffff;fill-opacity:1;fill-rule:nonzero;stroke:#aa37da;stroke-width:1.05781889;stroke-linecap:round;stroke-linejoin:round;stroke-miterlimit:4;stroke-opacity:1;stroke-dasharray:none;stroke-dashoffset:0;marker:none;visibility:visible;display:inline;overflow:visible;enable-background:accumulate"
         d="m 25.739748,1036.8628 c 0,0.9312 -0.754921,1.6862 -1.686163,1.6862 -0.931242,0 -1.686163,-0.755 -1.686163,-1.6862 0,-0.9312 0.754921,-1.6862 1.686163,-1.6862 0.931242,0 1.686163,0.755 1.686163,1.6862 z"
         sodipodi:cx="24.053585"
         sodipodi:cy="1036.8628"
         sodipodi:rx="1.6861631"
         sodipodi:ry="1.6861631" />
      <circle
         inkscape:transform-center-y="-5.8809042"
         inkscape:transform-center-x="1.7272503"
         transform="matrix(-1.1264017,0,0,-1.126163,65.012933,2186.8266)"
         r="1.6861631"
         cy="1042.1307"
         cx="15.303577"
         id="path4155-35-1"
         style="color:#000000;fill:#ffffff;fill-opacity:1;fill-rule:nonzero;stroke:#aa37da;stroke-width:1.05781889;stroke-linecap:round;stroke-linejoin:round;stroke-miterlimit:4;stroke-opacity:1;stroke-dasharray:none;stroke-dashoffset:0;marker:none;visibility:visible;display:inline;overflow:visible;enable-background:accumulate"
         d="m 16.98974,1042.1307 c 0,0.9313 -0.75492,1.6862 -1.686163,1.6862 -0.931242,0 -1.686163,-0.7549 -1.686163,-1.6862 0,-0.9312 0.754921,-1.6861 1.686163,-1.6861 0.931243,0 1.686163,0.7549 1.686163,1.6861 z"
         sodipodi:cx="15.303577"
         sodipodi:cy="1042.1307"
         sodipodi:rx="1.6861631"
         sodipodi:ry="1.6861631" />
    </g>
    <path
       style="color:#000000;fill:#21b321;fill-opacity:1;stroke:#198619;stroke-width:0.5;marker:none;visibility:visible;display:inline;overflow:visible;enable-background:accumulate;stroke-opacity:0.98431373000000000;stroke-linejoin:round;stroke-linecap:round;stroke-miterlimit:4;stroke-dasharray:none"
       d="m 18.269137,1036.7054 -1.033246,1.0332 -3.513037,-3.513 -1.821117,1.8211 3.513037,3.513 -1.033246,1.0333 5.334154,1.4336 -1.446545,-5.3212 z"
       id="rect3018"
       inkscape:connector-curvature="0" />
  </g>
</svg>
